<svg width="24" height="24" viewBox="0 0 24 24" fill="none" xmlns="http://www.w3.org/2000/svg">
<path d="M11.314 3.52776C11.4133 3.52138 11.5103 3.49531 11.5995 3.45107C11.6886 3.40682 11.768 3.34529 11.8331 3.27004C11.8982 3.1948 11.9477 3.10735 11.9787 3.0128C12.0097 2.91824 12.0215 2.81847 12.0135 2.71929C12.0056 2.62011 11.978 2.5235 11.9323 2.4351C11.8866 2.3467 11.8238 2.26826 11.7476 2.20437C11.6713 2.14047 11.5831 2.09239 11.488 2.06293C11.393 2.03347 11.293 2.02321 11.194 2.03276C6.049 2.44276 2 6.74876 2 12.0008C2 17.5238 6.477 22.0008 12 22.0008C17.249 22.0008 21.553 17.9568 21.967 12.8148C21.9765 12.7157 21.9663 12.6158 21.9368 12.5207C21.9074 12.4257 21.8593 12.3375 21.7954 12.2612C21.7315 12.1849 21.6531 12.1221 21.5647 12.0765C21.4763 12.0308 21.3796 12.0032 21.2805 11.9952C21.1813 11.9872 21.0815 11.9991 20.987 12.0301C20.8924 12.0611 20.805 12.1105 20.7297 12.1756C20.6545 12.2408 20.5929 12.3202 20.5487 12.4093C20.5044 12.4984 20.4784 12.5955 20.472 12.6948C20.3394 14.3116 19.7469 15.8568 18.7644 17.1477C17.7819 18.4387 16.4505 19.4215 14.9274 19.9802C13.4043 20.5388 11.7531 20.6499 10.1689 20.3003C8.58473 19.9508 7.13366 19.1552 5.98708 18.0074C4.8405 16.8597 4.04632 15.4079 3.69831 13.8233C3.35031 12.2388 3.46302 10.5878 4.02315 9.06524C4.58327 7.5427 5.56741 6.21225 6.85933 5.23102C8.15125 4.24979 9.697 3.65877 11.314 3.52776ZM17.697 4.67476C17.7636 4.60211 17.8438 4.54329 17.9331 4.50166C18.0224 4.46002 18.119 4.4364 18.2175 4.43212C18.3159 4.42785 18.4142 4.44302 18.5068 4.47676C18.5994 4.5105 18.6844 4.56215 18.757 4.62876C18.9717 4.82476 19.177 5.03042 19.373 5.24576C19.4992 5.39355 19.5631 5.58454 19.5512 5.77851C19.5393 5.97247 19.4527 6.15426 19.3094 6.28558C19.1662 6.41689 18.9776 6.48749 18.7833 6.48248C18.589 6.47748 18.4043 6.39727 18.268 6.25876C18.1003 6.07661 17.9251 5.90146 17.743 5.73376C17.6704 5.66719 17.6115 5.58697 17.5699 5.49766C17.5283 5.40836 17.5046 5.31173 17.5004 5.21329C17.4961 5.11485 17.5113 5.01653 17.545 4.92396C17.5787 4.83138 17.6304 4.74736 17.697 4.67476ZM11.25 6.00076C11.4312 6.00076 11.6063 6.0664 11.7429 6.18552C11.8795 6.30465 11.9684 6.4692 11.993 6.64876L12 6.75076V12.0008H15.25C15.44 12.0008 15.6229 12.073 15.7618 12.2027C15.9006 12.3325 15.9851 12.5101 15.998 12.6996C16.011 12.8892 15.9515 13.0766 15.8316 13.2241C15.7117 13.3715 15.5402 13.4679 15.352 13.4938L15.25 13.5008H11.25C11.0686 13.5007 10.8934 13.4349 10.7568 13.3156C10.6202 13.1963 10.5314 13.0315 10.507 12.8518L10.5 12.7508V6.75076C10.5 6.55184 10.579 6.36108 10.7197 6.22043C10.8603 6.07977 11.0511 6.00076 11.25 6.00076ZM13.781 2.89076C13.8076 2.79585 13.8525 2.70711 13.9134 2.62961C13.9743 2.5521 14.0498 2.48735 14.1357 2.43906C14.2216 2.39077 14.3162 2.35988 14.4141 2.34816C14.5119 2.33644 14.6111 2.34412 14.706 2.37076C15.0707 2.47364 15.4293 2.59717 15.78 2.74076C15.874 2.77594 15.96 2.82964 16.0328 2.89866C16.1057 2.96767 16.1639 3.05061 16.2042 3.14256C16.2444 3.2345 16.2657 3.33358 16.267 3.43393C16.2682 3.53428 16.2493 3.63386 16.2113 3.72677C16.1734 3.81967 16.1172 3.90401 16.046 3.9748C15.9749 4.04559 15.8903 4.10137 15.7972 4.13886C15.7041 4.17634 15.6044 4.19477 15.5041 4.19303C15.4037 4.19129 15.3047 4.16944 15.213 4.12876C14.917 4.00742 14.613 3.90309 14.301 3.81576C14.2061 3.7892 14.1174 3.74421 14.0399 3.68334C13.9623 3.62247 13.8976 3.54693 13.8493 3.46102C13.801 3.37512 13.7701 3.28054 13.7584 3.18269C13.7467 3.08484 13.7544 2.98564 13.781 2.89076ZM21.259 8.21576C21.2217 8.12455 21.1668 8.04159 21.0975 7.9716C21.0281 7.90161 20.9456 7.84597 20.8548 7.80785C20.7639 7.76973 20.6664 7.74989 20.5679 7.74944C20.4694 7.74899 20.3717 7.76796 20.2805 7.80526C20.1893 7.84255 20.1063 7.89745 20.0363 7.9668C19.9664 8.03616 19.9107 8.11863 19.8726 8.20949C19.8345 8.30035 19.8146 8.39783 19.8142 8.49636C19.8137 8.5949 19.8327 8.69255 19.87 8.78376C19.9934 9.08212 20.0986 9.38768 20.185 9.69876C20.2101 9.79526 20.2541 9.8858 20.3146 9.96508C20.3751 10.0444 20.4508 10.1108 20.5372 10.1605C20.6237 10.2101 20.7191 10.2421 20.8181 10.2544C20.917 10.2668 21.0174 10.2593 21.1134 10.2323C21.2095 10.2054 21.2991 10.1596 21.3772 10.0976C21.4553 10.0356 21.5203 9.95867 21.5683 9.87128C21.6163 9.78389 21.6464 9.6878 21.6568 9.58863C21.6672 9.48947 21.6578 9.38922 21.629 9.29376C21.5263 8.92768 21.4027 8.56776 21.259 8.21576Z" fill="#E26C78"/>
</svg>
