<svg width="25" height="24" viewBox="0 0 25 24" fill="none" xmlns="http://www.w3.org/2000/svg">
<g clip-path="url(#clip0_995_4613)">
<path d="M24.5 4.5V13.5C24.4062 13.3203 24.3047 13.1289 24.1953 12.9258C24.0859 12.7227 23.9648 12.5234 23.832 12.3281C23.6992 12.1328 23.5625 11.9375 23.4219 11.7422C23.2812 11.5469 23.1406 11.3828 23 11.25V7.5L12.5 12.75L2 7.5V18H13.25L14 19.5H0.5V4.5H24.5ZM22.8242 6H2.17578L12.5 11.168L22.8242 6ZM21.6875 18.5977C22.1172 18.8242 22.5039 19.1016 22.8477 19.4297C23.1914 19.7578 23.4883 20.125 23.7383 20.5312C23.9883 20.9375 24.1758 21.3672 24.3008 21.8203C24.4258 22.2734 24.4922 22.75 24.5 23.25V24H23V23.25C23 22.7344 22.9023 22.25 22.707 21.7969C22.5117 21.3438 22.2422 20.9492 21.8984 20.6133C21.5547 20.2773 21.1562 20.0078 20.7031 19.8047C20.25 19.6016 19.7656 19.5 19.25 19.5C18.7344 19.5 18.25 19.5977 17.7969 19.793C17.3438 19.9883 16.9453 20.2578 16.6016 20.6016C16.2578 20.9453 15.9883 21.3438 15.793 21.7969C15.5977 22.25 15.5 22.7344 15.5 23.25V24H14V23.25C14 22.7578 14.0625 22.2852 14.1875 21.832C14.3125 21.3789 14.5 20.9492 14.75 20.543C15 20.1367 15.2969 19.7695 15.6406 19.4414C15.9844 19.1133 16.375 18.832 16.8125 18.5977C16.3906 18.2383 16.0664 17.8125 15.8398 17.3203C15.6133 16.8281 15.5 16.3047 15.5 15.75C15.5 15.2344 15.5977 14.75 15.793 14.2969C15.9883 13.8438 16.2539 13.4492 16.5898 13.1133C16.9258 12.7773 17.3242 12.5078 17.7852 12.3047C18.2461 12.1016 18.7344 12 19.25 12C19.7656 12 20.25 12.0977 20.7031 12.293C21.1562 12.4883 21.5508 12.7578 21.8867 13.1016C22.2227 13.4453 22.4922 13.8438 22.6953 14.2969C22.8984 14.75 23 15.2344 23 15.75C23 16.2969 22.8867 16.8164 22.6602 17.3086C22.4336 17.8008 22.1094 18.2305 21.6875 18.5977ZM17 15.75C17 16.0625 17.0586 16.3555 17.1758 16.6289C17.293 16.9023 17.4531 17.1406 17.6562 17.3438C17.8594 17.5469 18.0977 17.707 18.3711 17.8242C18.6445 17.9414 18.9375 18 19.25 18C19.5625 18 19.8555 17.9414 20.1289 17.8242C20.4023 17.707 20.6406 17.5469 20.8438 17.3438C21.0469 17.1406 21.207 16.9023 21.3242 16.6289C21.4414 16.3555 21.5 16.0625 21.5 15.75C21.5 15.4375 21.4414 15.1445 21.3242 14.8711C21.207 14.5977 21.0469 14.3594 20.8438 14.1562C20.6406 13.9531 20.4023 13.793 20.1289 13.6758C19.8555 13.5586 19.5625 13.5 19.25 13.5C18.9375 13.5 18.6445 13.5586 18.3711 13.6758C18.0977 13.793 17.8594 13.9531 17.6562 14.1562C17.4531 14.3594 17.293 14.5977 17.1758 14.8711C17.0586 15.1445 17 15.4375 17 15.75Z" fill="#4B49AC"/>
</g>
<defs>
<clipPath id="clip0_995_4613">
<rect width="24" height="24" fill="white" transform="translate(0.5)"/>
</clipPath>
</defs>
</svg>
