<svg width="30" height="30" viewBox="0 0 30 30" fill="none" xmlns="http://www.w3.org/2000/svg">
<path d="M6.5625 3.75C5.81658 3.75 5.10121 4.04632 4.57376 4.57376C4.04632 5.10121 3.75 5.81658 3.75 6.5625V10.3125C3.75 11.0584 4.04632 11.7738 4.57376 12.3012C5.10121 12.8287 5.81658 13.125 6.5625 13.125H10.3125C11.0584 13.125 11.7738 12.8287 12.3012 12.3012C12.8287 11.7738 13.125 11.0584 13.125 10.3125V6.5625C13.125 5.81658 12.8287 5.10121 12.3012 4.57376C11.7738 4.04632 11.0584 3.75 10.3125 3.75H6.5625ZM5.625 6.5625C5.625 6.31386 5.72377 6.0754 5.89959 5.89959C6.0754 5.72377 6.31386 5.625 6.5625 5.625H10.3125C10.5611 5.625 10.7996 5.72377 10.9754 5.89959C11.1512 6.0754 11.25 6.31386 11.25 6.5625V10.3125C11.25 10.5611 11.1512 10.7996 10.9754 10.9754C10.7996 11.1512 10.5611 11.25 10.3125 11.25H6.5625C6.31386 11.25 6.0754 11.1512 5.89959 10.9754C5.72377 10.7996 5.625 10.5611 5.625 10.3125V6.5625ZM19.6875 3.75C18.9416 3.75 18.2262 4.04632 17.6988 4.57376C17.1713 5.10121 16.875 5.81658 16.875 6.5625V10.3125C16.875 11.0584 17.1713 11.7738 17.6988 12.3012C18.2262 12.8287 18.9416 13.125 19.6875 13.125H23.4375C24.1834 13.125 24.8988 12.8287 25.4262 12.3012C25.9537 11.7738 26.25 11.0584 26.25 10.3125V6.5625C26.25 5.81658 25.9537 5.10121 25.4262 4.57376C24.8988 4.04632 24.1834 3.75 23.4375 3.75H19.6875ZM18.75 6.5625C18.75 6.31386 18.8488 6.0754 19.0246 5.89959C19.2004 5.72377 19.4389 5.625 19.6875 5.625H23.4375C23.6861 5.625 23.9246 5.72377 24.1004 5.89959C24.2762 6.0754 24.375 6.31386 24.375 6.5625V10.3125C24.375 10.5611 24.2762 10.7996 24.1004 10.9754C23.9246 11.1512 23.6861 11.25 23.4375 11.25H19.6875C19.4389 11.25 19.2004 11.1512 19.0246 10.9754C18.8488 10.7996 18.75 10.5611 18.75 10.3125V6.5625ZM3.75 19.6875C3.75 18.9416 4.04632 18.2262 4.57376 17.6988C5.10121 17.1713 5.81658 16.875 6.5625 16.875H10.3125C11.0584 16.875 11.7738 17.1713 12.3012 17.6988C12.8287 18.2262 13.125 18.9416 13.125 19.6875V23.4375C13.125 24.1834 12.8287 24.8988 12.3012 25.4262C11.7738 25.9537 11.0584 26.25 10.3125 26.25H6.5625C5.81658 26.25 5.10121 25.9537 4.57376 25.4262C4.04632 24.8988 3.75 24.1834 3.75 23.4375V19.6875ZM6.5625 18.75C6.31386 18.75 6.0754 18.8488 5.89959 19.0246C5.72377 19.2004 5.625 19.4389 5.625 19.6875V23.4375C5.625 23.6861 5.72377 23.9246 5.89959 24.1004C6.0754 24.2762 6.31386 24.375 6.5625 24.375H10.3125C10.5611 24.375 10.7996 24.2762 10.9754 24.1004C11.1512 23.9246 11.25 23.6861 11.25 23.4375V19.6875C11.25 19.4389 11.1512 19.2004 10.9754 19.0246C10.7996 18.8488 10.5611 18.75 10.3125 18.75H6.5625ZM19.6875 16.875C18.9416 16.875 18.2262 17.1713 17.6988 17.6988C17.1713 18.2262 16.875 18.9416 16.875 19.6875V23.4375C16.875 24.1834 17.1713 24.8988 17.6988 25.4262C18.2262 25.9537 18.9416 26.25 19.6875 26.25H23.4375C24.1834 26.25 24.8988 25.9537 25.4262 25.4262C25.9537 24.8988 26.25 24.1834 26.25 23.4375V19.6875C26.25 18.9416 25.9537 18.2262 25.4262 17.6988C24.8988 17.1713 24.1834 16.875 23.4375 16.875H19.6875ZM18.75 19.6875C18.75 19.4389 18.8488 19.2004 19.0246 19.0246C19.2004 18.8488 19.4389 18.75 19.6875 18.75H23.4375C23.6861 18.75 23.9246 18.8488 24.1004 19.0246C24.2762 19.2004 24.375 19.4389 24.375 19.6875V23.4375C24.375 23.6861 24.2762 23.9246 24.1004 24.1004C23.9246 24.2762 23.6861 24.375 23.4375 24.375H19.6875C19.4389 24.375 19.2004 24.2762 19.0246 24.1004C18.8488 23.9246 18.75 23.6861 18.75 23.4375V19.6875Z" fill="black"/>
</svg>
