<svg width="22" height="22" viewBox="0 0 22 22" fill="none" xmlns="http://www.w3.org/2000/svg">
<path d="M10.0701 16.22C10.1663 16.3158 10.2426 16.4296 10.2946 16.555C10.3467 16.6803 10.3735 16.8147 10.3735 16.9504C10.3735 17.0862 10.3467 17.2206 10.2946 17.3459C10.2426 17.4713 10.1663 17.5851 10.0701 17.6809L9.63014 18.1209C9.16306 18.5897 8.60769 18.9613 7.99612 19.2141C7.38455 19.4669 6.72893 19.596 6.06717 19.5939C5.07058 19.5942 4.09629 19.2989 3.26755 18.7454C2.43881 18.1919 1.79288 17.405 1.41145 16.4843C1.03003 15.5636 0.930268 14.5504 1.12478 13.573C1.31929 12.5955 1.79934 11.6978 2.5042 10.9932L5.49053 8.00692C6.12572 7.37182 6.91912 6.91803 7.78859 6.69255C8.65806 6.46706 9.572 6.47807 10.4358 6.72443C11.2996 6.97079 12.0818 7.44354 12.7015 8.09375C13.3213 8.74397 13.7559 9.548 13.9605 10.4226C13.9944 10.5556 14.0014 10.694 13.9811 10.8297C13.9608 10.9655 13.9137 11.0958 13.8424 11.213C13.7711 11.3303 13.6771 11.4321 13.5659 11.5126C13.4548 11.5931 13.3287 11.6506 13.195 11.6817C13.0614 11.7128 12.9228 11.7169 12.7876 11.6938C12.6523 11.6707 12.523 11.6208 12.4072 11.5471C12.2915 11.4734 12.1916 11.3773 12.1135 11.2645C12.0353 11.1517 11.9805 11.0244 11.9522 10.8901C11.8308 10.3738 11.5736 9.89934 11.2074 9.51571C10.8412 9.13207 10.3792 8.8532 9.86909 8.70794C9.359 8.56267 8.81937 8.55628 8.30598 8.68943C7.7926 8.82257 7.32409 9.09042 6.94889 9.46528L3.96256 12.4516C3.54629 12.8675 3.26271 13.3976 3.14769 13.9747C3.03266 14.5518 3.09137 15.1501 3.31637 15.6938C3.54138 16.2375 3.92257 16.7024 4.41176 17.0294C4.90094 17.3565 5.47613 17.5312 6.06459 17.5314C6.45559 17.5325 6.84294 17.4561 7.2042 17.3065C7.56546 17.1569 7.89345 16.9372 8.1692 16.66L8.60834 16.22C8.70416 16.1237 8.81806 16.0473 8.94349 15.9952C9.06892 15.9431 9.20341 15.9162 9.33924 15.9162C9.47507 15.9162 9.60956 15.9431 9.73499 15.9952C9.86042 16.0473 9.97432 16.1237 10.0701 16.22ZM19.4932 3.88192C18.548 2.93705 17.2663 2.40625 15.9298 2.40625C14.5933 2.40625 13.3116 2.93705 12.3664 3.88192L11.9272 4.32106C11.7335 4.51479 11.6247 4.77755 11.6247 5.05153C11.6247 5.3255 11.7335 5.58826 11.9272 5.78199C12.121 5.97573 12.3837 6.08456 12.6577 6.08456C12.9317 6.08456 13.1945 5.97573 13.3882 5.78199L13.8282 5.34199C14.3866 4.78359 15.144 4.46988 15.9337 4.46988C16.7234 4.46988 17.4807 4.78359 18.0391 5.34199C18.5975 5.9004 18.9112 6.65776 18.9112 7.44746C18.9112 8.23717 18.5975 8.99453 18.0391 9.55293L15.0476 12.535C14.7719 12.8122 14.4439 13.0319 14.0826 13.1815C13.7214 13.3311 13.334 13.4075 12.943 13.4064C12.2723 13.4059 11.6214 13.1788 11.0958 12.762C10.5703 12.3452 10.201 11.7631 10.0478 11.1101C9.9858 10.8437 9.8205 10.6128 9.58826 10.4682C9.35603 10.3237 9.07587 10.2773 8.80943 10.3393C8.543 10.4013 8.3121 10.5666 8.16753 10.7988C8.02297 11.031 7.97658 11.3112 8.03858 11.5776C8.29734 12.6835 8.9221 13.6696 9.81155 14.3759C10.701 15.0822 11.803 15.4674 12.9387 15.4689H12.943C13.6051 15.4707 14.261 15.3412 14.8727 15.0879C15.4844 14.8347 16.0398 14.4626 16.5069 13.9933L19.4932 11.007C19.9611 10.5392 20.3323 9.9838 20.5855 9.37253C20.8387 8.76126 20.9691 8.1061 20.9691 7.44446C20.9691 6.78281 20.8387 6.12765 20.5855 5.51638C20.3323 4.90511 19.9611 4.34972 19.4932 3.88192Z" fill="#4B49AC"/>
</svg>
