<svg width="32" height="32" viewBox="0 0 32 32" fill="none" xmlns="http://www.w3.org/2000/svg">
<path d="M25.3333 25H6.66668C6.04892 24.9965 5.45746 24.7495 5.02063 24.3127C4.5838 23.8759 4.33684 23.2844 4.33334 22.6667V9.33333C4.33684 8.71557 4.5838 8.12411 5.02063 7.68729C5.45746 7.25046 6.04892 7.0035 6.66668 7H25.3333C25.9511 7.0035 26.5426 7.25046 26.9794 7.68729C27.4162 8.12411 27.6632 8.71557 27.6667 9.33333V22.6667C27.6632 23.2844 27.4162 23.8759 26.9794 24.3127C26.5426 24.7495 25.9511 24.9965 25.3333 25ZM6.66668 9C6.57827 9 6.49349 9.03512 6.43097 9.09763C6.36846 9.16014 6.33334 9.24493 6.33334 9.33333V22.6667C6.33334 22.7551 6.36846 22.8399 6.43097 22.9024C6.49349 22.9649 6.57827 23 6.66668 23H25.3333C25.4217 23 25.5065 22.9649 25.569 22.9024C25.6316 22.8399 25.6667 22.7551 25.6667 22.6667V9.33333C25.6667 9.24493 25.6316 9.16014 25.569 9.09763C25.5065 9.03512 25.4217 9 25.3333 9H6.66668Z" fill="#333333"/>
<path d="M12 15.6673C11.4726 15.6673 10.957 15.5109 10.5185 15.2179C10.0799 14.9249 9.73815 14.5084 9.53632 14.0211C9.33449 13.5339 9.28168 12.9977 9.38457 12.4804C9.48747 11.9631 9.74144 11.488 10.1144 11.115C10.4873 10.7421 10.9625 10.4881 11.4798 10.3852C11.997 10.2823 12.5332 10.3351 13.0205 10.537C13.5078 10.7388 13.9242 11.0806 14.2173 11.5191C14.5103 11.9577 14.6667 12.4732 14.6667 13.0007C14.6667 13.7079 14.3857 14.3862 13.8856 14.8863C13.3855 15.3864 12.7072 15.6673 12 15.6673ZM12 12.334C11.8681 12.334 11.7393 12.3731 11.6296 12.4463C11.52 12.5196 11.4345 12.6237 11.3841 12.7455C11.3336 12.8673 11.3204 13.0014 11.3461 13.1307C11.3719 13.26 11.4354 13.3788 11.5286 13.4721C11.6218 13.5653 11.7406 13.6288 11.8699 13.6545C11.9993 13.6802 12.1333 13.667 12.2551 13.6166C12.3769 13.5661 12.4811 13.4807 12.5543 13.371C12.6276 13.2614 12.6667 13.1325 12.6667 13.0007C12.6667 12.8238 12.5964 12.6543 12.4714 12.5292C12.3464 12.4042 12.1768 12.334 12 12.334ZM16 21.0006C15.7359 20.9972 15.4835 20.8907 15.2967 20.7039C15.1099 20.5171 15.0035 20.2648 15 20.0007C15 19.094 14.7733 18.334 12 18.334C9.22667 18.334 9 19.094 9 20.0007C9 20.2659 8.89464 20.5202 8.70711 20.7078C8.51957 20.8953 8.26522 21.0006 8 21.0006C7.73478 21.0006 7.48043 20.8953 7.29289 20.7078C7.10536 20.5202 7 20.2659 7 20.0007C7 16.334 10.76 16.334 12 16.334C13.24 16.334 17 16.334 17 20.0007C16.9965 20.2648 16.8901 20.5171 16.7033 20.7039C16.5165 20.8907 16.2641 20.9972 16 21.0006ZM22.6667 14.334H18.6667C18.4014 14.334 18.1471 14.2286 17.9596 14.0411C17.772 13.8536 17.6667 13.5992 17.6667 13.334C17.6667 13.0688 17.772 12.8144 17.9596 12.6269C18.1471 12.4393 18.4014 12.334 18.6667 12.334H22.6667C22.9319 12.334 23.1862 12.4393 23.3738 12.6269C23.5613 12.8144 23.6667 13.0688 23.6667 13.334C23.6667 13.5992 23.5613 13.8536 23.3738 14.0411C23.1862 14.2286 22.9319 14.334 22.6667 14.334ZM21.3333 18.334H18.6667C18.4014 18.334 18.1471 18.2286 17.9596 18.0411C17.772 17.8536 17.6667 17.5992 17.6667 17.334C17.6667 17.0688 17.772 16.8144 17.9596 16.6269C18.1471 16.4393 18.4014 16.334 18.6667 16.334H21.3333C21.5985 16.334 21.8529 16.4393 22.0404 16.6269C22.228 16.8144 22.3333 17.0688 22.3333 17.334C22.3333 17.5992 22.228 17.8536 22.0404 18.0411C21.8529 18.2286 21.5985 18.334 21.3333 18.334Z" fill="#333333"/>
</svg>
