<svg width="25" height="24" viewBox="0 0 25 24" fill="none" xmlns="http://www.w3.org/2000/svg">
<path d="M13 6.5C14.1046 6.5 15 5.60457 15 4.5C15 3.39543 14.1046 2.5 13 2.5C11.8954 2.5 11 3.39543 11 4.5C11 5.60457 11.8954 6.5 13 6.5Z" fill="#444444"/>
<path d="M13 13.5C14.1046 13.5 15 12.6046 15 11.5C15 10.3954 14.1046 9.5 13 9.5C11.8954 9.5 11 10.3954 11 11.5C11 12.6046 11.8954 13.5 13 13.5Z" fill="#444444"/>
<path d="M13 20.5C14.1046 20.5 15 19.6046 15 18.5C15 17.3954 14.1046 16.5 13 16.5C11.8954 16.5 11 17.3954 11 18.5C11 19.6046 11.8954 20.5 13 20.5Z" fill="#444444"/>
</svg>
