<svg width="20" height="21" viewBox="0 0 20 21" fill="none" xmlns="http://www.w3.org/2000/svg">
<path d="M4.16669 6.95898C4.04315 6.95909 3.92242 6.99581 3.81974 7.06449C3.71706 7.13317 3.63704 7.23075 3.58978 7.34488C3.54252 7.45902 3.53015 7.5846 3.55422 7.70576C3.57829 7.82693 3.63772 7.93825 3.72502 8.02565L9.55835 13.859C9.67554 13.976 9.83439 14.0418 10 14.0418C10.1656 14.0418 10.3245 13.976 10.4417 13.859L16.275 8.02565C16.3623 7.93825 16.4218 7.82693 16.4458 7.70576C16.4699 7.5846 16.4575 7.45902 16.4103 7.34488C16.363 7.23075 16.283 7.13317 16.1803 7.06449C16.0776 6.99581 15.9569 6.95909 15.8334 6.95898H4.16669Z" fill="#525251"/>
</svg>
