<svg width="15" height="16" viewBox="0 0 15 16" fill="none" xmlns="http://www.w3.org/2000/svg">
<path d="M8.69565 1.69565C8.69565 1.44485 8.59602 1.20432 8.41868 1.02698C8.24133 0.849631 8.0008 0.75 7.75 0.75C7.4992 0.75 7.25867 0.849631 7.08132 1.02698C6.90398 1.20432 6.80435 1.44485 6.80435 1.69565V7.05435H1.44565C1.19485 7.05435 0.954319 7.15398 0.776975 7.33132C0.599631 7.50867 0.5 7.7492 0.5 8C0.5 8.2508 0.599631 8.49133 0.776975 8.66868C0.954319 8.84602 1.19485 8.94565 1.44565 8.94565H6.80435V14.3043C6.80435 14.5552 6.90398 14.7957 7.08132 14.973C7.25867 15.1504 7.4992 15.25 7.75 15.25C8.0008 15.25 8.24133 15.1504 8.41868 14.973C8.59602 14.7957 8.69565 14.5552 8.69565 14.3043V8.94565H14.0543C14.3052 8.94565 14.5457 8.84602 14.723 8.66868C14.9004 8.49133 15 8.2508 15 8C15 7.7492 14.9004 7.50867 14.723 7.33132C14.5457 7.15398 14.3052 7.05435 14.0543 7.05435H8.69565V1.69565Z" fill="white"/>
</svg>
