<svg width="24" height="24" viewBox="0 0 24 24" fill="none" xmlns="http://www.w3.org/2000/svg">
<rect x="1" y="1" width="22" height="22" rx="11" stroke="#333333" stroke-width="2"/>
<path d="M9 9.12537C9 9.12537 9.045 8.09412 10.0481 7.26724C10.6437 6.7763 11.3591 6.63412 12 6.62537C12.5853 6.61818 13.1084 6.71724 13.4213 6.86974C13.9559 7.13162 15 7.76912 15 9.12537C15 10.5526 14.0881 11.1994 13.0516 11.9122C12.015 12.6251 11.75 13.3241 11.75 14.1254" stroke="#333333" stroke-width="1.25" stroke-miterlimit="10" stroke-linecap="round"/>
<path d="M11.75 17.5C12.3023 17.5 12.75 17.0523 12.75 16.5C12.75 15.9477 12.3023 15.5 11.75 15.5C11.1977 15.5 10.75 15.9477 10.75 16.5C10.75 17.0523 11.1977 17.5 11.75 17.5Z" fill="#333333"/>
</svg>
