<svg width="22" height="22" viewBox="0 0 22 22" fill="none" xmlns="http://www.w3.org/2000/svg">
<path d="M2.75 2.75H8.25C8.61467 2.75 8.96441 2.89487 9.22227 3.15273C9.48013 3.41059 9.625 3.76033 9.625 4.125V9.625C9.625 9.98967 9.48013 10.3394 9.22227 10.5973C8.96441 10.8551 8.61467 11 8.25 11H2.75C2.38533 11 2.03559 10.8551 1.77773 10.5973C1.51987 10.3394 1.375 9.98967 1.375 9.625V4.125C1.375 3.76033 1.51987 3.41059 1.77773 3.15273C2.03559 2.89487 2.38533 2.75 2.75 2.75ZM9.15063 14.5681C9.34374 14.7615 9.45222 15.0236 9.45222 15.2969C9.45222 15.5702 9.34374 15.8323 9.15063 16.0256L5.54125 19.635C5.34789 19.8281 5.08578 19.9366 4.8125 19.9366C4.53922 19.9366 4.27711 19.8281 4.08375 19.635L2.02125 17.5725C1.8855 17.4465 1.78627 17.2861 1.734 17.1084C1.68173 16.9307 1.67836 16.7422 1.72425 16.5627C1.77014 16.3832 1.86358 16.2195 1.99474 16.0886C2.1259 15.9578 2.28991 15.8648 2.4695 15.8194C2.64877 15.7736 2.83707 15.7769 3.01464 15.8289C3.19221 15.8809 3.35252 15.9797 3.47875 16.115L4.8125 17.4487L7.69312 14.5681C7.88648 14.375 8.14859 14.2665 8.42188 14.2665C8.69516 14.2665 8.95727 14.375 9.15063 14.5681ZM13.4062 3.4375H20.9688C21.2423 3.4375 21.5046 3.54615 21.698 3.73955C21.8913 3.93294 22 4.19525 22 4.46875C22 4.74225 21.8913 5.00456 21.698 5.19795C21.5046 5.39135 21.2423 5.5 20.9688 5.5H13.4062C13.1327 5.5 12.8704 5.39135 12.677 5.19795C12.4837 5.00456 12.375 4.74225 12.375 4.46875C12.375 4.19525 12.4837 3.93294 12.677 3.73955C12.8704 3.54615 13.1327 3.4375 13.4062 3.4375ZM13.4062 10.3125H20.9688C21.2423 10.3125 21.5046 10.4211 21.698 10.6145C21.8913 10.8079 22 11.0702 22 11.3438C22 11.6173 21.8913 11.8796 21.698 12.073C21.5046 12.2663 21.2423 12.375 20.9688 12.375H13.4062C13.1327 12.375 12.8704 12.2663 12.677 12.073C12.4837 11.8796 12.375 11.6173 12.375 11.3438C12.375 11.0702 12.4837 10.8079 12.677 10.6145C12.8704 10.4211 13.1327 10.3125 13.4062 10.3125ZM13.4062 17.1875H20.9688C21.2423 17.1875 21.5046 17.2962 21.698 17.4895C21.8913 17.6829 22 17.9452 22 18.2188C22 18.4923 21.8913 18.7546 21.698 18.948C21.5046 19.1413 21.2423 19.25 20.9688 19.25H13.4062C13.1327 19.25 12.8704 19.1413 12.677 18.948C12.4837 18.7546 12.375 18.4923 12.375 18.2188C12.375 17.9452 12.4837 17.6829 12.677 17.4895C12.8704 17.2962 13.1327 17.1875 13.4062 17.1875ZM3.4375 4.8125V8.9375H7.5625V4.8125H3.4375Z" fill="black"/>
</svg>
