<svg width="20" height="21" viewBox="0 0 20 21" fill="none" xmlns="http://www.w3.org/2000/svg">
<path d="M19.25 5.5C19.4489 5.5 19.6397 5.57902 19.7803 5.71967C19.921 5.86032 20 6.05109 20 6.25C20 6.44891 19.921 6.63968 19.7803 6.78033C19.6397 6.92098 19.4489 7 19.25 7H4.75C4.55109 7 4.36032 6.92098 4.21967 6.78033C4.07902 6.63968 4 6.44891 4 6.25C4 6.05109 4.07902 5.86032 4.21967 5.71967C4.36032 5.57902 4.55109 5.5 4.75 5.5H19.25ZM20 11.25C20 11.0511 19.921 10.8603 19.7803 10.7197C19.6397 10.579 19.4489 10.5 19.25 10.5H9.663C10.2365 10.9032 10.7277 11.4123 11.11 12H19.25C19.4489 12 19.6397 11.921 19.7803 11.7803C19.921 11.6397 20 11.4489 20 11.25ZM19.25 15.5H11.978C11.9313 16.0141 11.8125 16.519 11.625 17H19.25C19.4489 17 19.6397 16.921 19.7803 16.7803C19.921 16.6397 20 16.4489 20 16.25C20 16.0511 19.921 15.8603 19.7803 15.7197C19.6397 15.579 19.4489 15.5 19.25 15.5ZM2 15C2 16.1935 2.47411 17.3381 3.31802 18.182C4.16193 19.0259 5.30653 19.5 6.5 19.5C7.69347 19.5 8.83807 19.0259 9.68198 18.182C10.5259 17.3381 11 16.1935 11 15C11 13.8065 10.5259 12.6619 9.68198 11.818C8.83807 10.9741 7.69347 10.5 6.5 10.5C5.30653 10.5 4.16193 10.9741 3.31802 11.818C2.47411 12.6619 2 13.8065 2 15ZM4.287 14.563L7.257 12.913C7.33311 12.8707 7.41896 12.849 7.50604 12.85C7.59312 12.8511 7.67842 12.8748 7.75348 12.919C7.82855 12.9631 7.89079 13.0261 7.93402 13.1017C7.97726 13.1773 8 13.2629 8 13.35V16.65C8 16.7371 7.97726 16.8227 7.93402 16.8983C7.89079 16.9739 7.82855 17.0369 7.75348 17.081C7.67842 17.1252 7.59312 17.1489 7.50604 17.15C7.41896 17.151 7.33311 17.1293 7.257 17.087L4.287 15.437C4.20909 15.3937 4.14418 15.3303 4.09899 15.2535C4.05379 15.1767 4.02996 15.0891 4.02996 15C4.02996 14.9109 4.05379 14.8233 4.09899 14.7465C4.14418 14.6697 4.20909 14.6063 4.287 14.563Z" fill="black"/>
</svg>
