<svg width="30" height="30" viewBox="0 0 30 30" fill="none" xmlns="http://www.w3.org/2000/svg">
<path d="M15 26.25C14.6458 26.25 14.3492 26.13 14.11 25.89C13.8708 25.65 13.7508 25.3533 13.75 25C13.7492 24.6467 13.8692 24.35 14.11 24.11C14.3508 23.87 14.6475 23.75 15 23.75H23.75V14.875C23.75 12.4375 22.9013 10.37 21.2038 8.6725C19.5063 6.975 17.4383 6.12583 15 6.125C12.5617 6.12417 10.4942 6.97333 8.7975 8.6725C7.10083 10.3717 6.25167 12.4392 6.25 14.875V21.25C6.25 21.6042 6.13 21.9012 5.89 22.1412C5.65 22.3812 5.35333 22.5008 5 22.5C4.3125 22.5 3.72417 22.2554 3.235 21.7663C2.74583 21.2771 2.50083 20.6883 2.5 20V17.5C2.5 17.0625 2.60958 16.6512 2.82875 16.2662C3.04792 15.8812 3.355 15.5737 3.75 15.3438L3.84375 13.6875C4.01042 12.2708 4.42208 10.9583 5.07875 9.75C5.73542 8.54167 6.55833 7.48958 7.5475 6.59375C8.53667 5.69792 9.67167 5 10.9525 4.5C12.2333 4 13.5825 3.75 15 3.75C16.4175 3.75 17.7613 4 19.0313 4.5C20.3013 5 21.4367 5.69292 22.4375 6.57875C23.4383 7.46458 24.2613 8.51125 24.9063 9.71875C25.5513 10.9262 25.9679 12.2388 26.1563 13.6562L26.25 15.2812C26.6458 15.4688 26.9533 15.75 27.1725 16.125C27.3917 16.5 27.5008 16.8958 27.5 17.3125V20.1875C27.5 20.6042 27.3908 21 27.1725 21.375C26.9542 21.75 26.6467 22.0312 26.25 22.2188V23.75C26.25 24.4375 26.0054 25.0263 25.5163 25.5163C25.0271 26.0063 24.4383 26.2508 23.75 26.25H15ZM11.25 17.5C10.8958 17.5 10.5992 17.38 10.36 17.14C10.1208 16.9 10.0008 16.6033 10 16.25C9.99917 15.8967 10.1192 15.6 10.36 15.36C10.6008 15.12 10.8975 15 11.25 15C11.6025 15 11.8996 15.12 12.1413 15.36C12.3829 15.6 12.5025 15.8967 12.5 16.25C12.4975 16.6033 12.3775 16.9004 12.14 17.1413C11.9025 17.3821 11.6058 17.5017 11.25 17.5ZM18.75 17.5C18.3958 17.5 18.0992 17.38 17.86 17.14C17.6208 16.9 17.5008 16.6033 17.5 16.25C17.4992 15.8967 17.6192 15.6 17.86 15.36C18.1008 15.12 18.3975 15 18.75 15C19.1025 15 19.3996 15.12 19.6413 15.36C19.8829 15.6 20.0025 15.8967 20 16.25C19.9975 16.6033 19.8775 16.9004 19.64 17.1413C19.4025 17.3821 19.1058 17.5017 18.75 17.5ZM7.53125 15.5625C7.38542 13.3542 8.05208 11.4583 9.53125 9.875C11.0104 8.29167 12.8542 7.5 15.0625 7.5C16.9167 7.5 18.5471 8.08833 19.9538 9.265C21.3604 10.4417 22.2092 11.9475 22.5 13.7825C20.6042 13.7608 18.8596 13.25 17.2663 12.25C15.6729 11.25 14.4488 9.89583 13.5938 8.1875C13.2604 9.85417 12.5575 11.3387 11.485 12.6412C10.4125 13.9438 9.09458 14.9175 7.53125 15.5625Z" fill="#333333"/>
</svg>
