<svg width="20" height="20" viewBox="0 0 20 20" fill="none" xmlns="http://www.w3.org/2000/svg">
<path d="M2.75 19C2.55109 19 2.36032 18.921 2.21967 18.7803C2.07902 18.6397 2 18.4489 2 18.25C2 18.0511 2.07902 17.8603 2.21967 17.7197C2.36032 17.579 2.55109 17.5 2.75 17.5H17.25C17.4489 17.5 17.6397 17.579 17.7803 17.7197C17.921 17.8603 18 18.0511 18 18.25C18 18.4489 17.921 18.6397 17.7803 18.7803C17.6397 18.921 17.4489 19 17.25 19L2.75 19ZM2 13.25C2 13.4489 2.07902 13.6397 2.21967 13.7803C2.36032 13.921 2.55109 14 2.75 14H12.337C11.7635 13.5968 11.2723 13.0877 10.89 12.5H2.75C2.55109 12.5 2.36032 12.579 2.21967 12.7197C2.07902 12.8603 2 13.0511 2 13.25ZM2.75 9L10.022 9C10.0687 8.48591 10.1875 7.98096 10.375 7.5L2.75 7.5C2.55109 7.5 2.36032 7.57902 2.21967 7.71967C2.07902 7.86032 2 8.05109 2 8.25C2 8.44891 2.07902 8.63968 2.21967 8.78033C2.36032 8.92098 2.55109 9 2.75 9ZM20 9.5C20 8.30653 19.5259 7.16193 18.682 6.31802C17.8381 5.47411 16.6935 5 15.5 5C14.3065 5 13.1619 5.47411 12.318 6.31802C11.4741 7.16193 11 8.30653 11 9.5C11 10.6935 11.4741 11.8381 12.318 12.682C13.1619 13.5259 14.3065 14 15.5 14C16.6935 14 17.8381 13.5259 18.682 12.682C19.5259 11.8381 20 10.6935 20 9.5ZM17.713 9.937L14.743 11.587C14.6669 11.6293 14.581 11.651 14.494 11.65C14.4069 11.6489 14.3216 11.6252 14.2465 11.581C14.1714 11.5369 14.1092 11.4739 14.066 11.3983C14.0227 11.3227 14 11.2371 14 11.15V7.85C14 7.76291 14.0227 7.67733 14.066 7.60174C14.1092 7.52614 14.1714 7.46315 14.2465 7.419C14.3216 7.37485 14.4069 7.35107 14.494 7.35002C14.581 7.34896 14.6669 7.37068 14.743 7.413L17.713 9.063C17.7909 9.10632 17.8558 9.16967 17.901 9.24651C17.9462 9.32334 17.97 9.41086 17.97 9.5C17.97 9.58914 17.9462 9.67666 17.901 9.75349C17.8558 9.83033 17.7909 9.89368 17.713 9.937Z" fill="black"/>
</svg>
