<svg width="27" height="28" viewBox="0 0 27 28" fill="none" xmlns="http://www.w3.org/2000/svg">
<path d="M3.14789 24.7623C2.62204 24.7623 2.20691 24.5932 1.90252 24.2551C1.62191 23.9427 1.47084 23.5329 1.4493 23.0256L1.44641 22.8969V4.77605C1.44641 4.20198 1.59845 3.74764 1.90252 3.41303C2.18313 3.10382 2.55839 2.93732 3.02832 2.91353L3.14838 2.91016H16.0732C16.5923 2.91016 17.004 3.07762 17.3084 3.41255C17.589 3.72112 17.7401 4.13207 17.7616 4.64539L17.7641 4.77557V7.95289H23.8632C24.3421 7.95289 24.7296 8.09705 25.0256 8.38537L25.0979 8.46058C25.3789 8.77237 25.5299 9.18203 25.5511 9.68957L25.554 9.8183V22.8969C25.554 23.4639 25.402 23.9166 25.0979 24.2551C24.8173 24.5669 24.4449 24.735 23.9808 24.7594L23.8627 24.7623H3.14789ZM17.7636 22.8969C17.7636 22.9708 17.761 23.0427 17.7559 23.1124H23.3188C23.5171 23.1124 23.6642 23.0645 23.76 22.9687C23.8419 22.8865 23.8887 22.7643 23.9003 22.6023L23.9037 22.5179V10.1977C23.9037 9.99267 23.8558 9.84225 23.76 9.74646C23.678 9.6645 23.5583 9.61773 23.4008 9.60616L23.3188 9.60326L17.7636 9.60278V22.8969ZM15.5298 4.56053H3.69127C3.4862 4.56053 3.33577 4.60826 3.23998 4.70373C3.15802 4.78601 3.11125 4.90816 3.09968 5.07016L3.09679 5.15501V22.5179C3.09679 22.7227 3.14452 22.873 3.23998 22.9687C3.32227 23.0507 3.44441 23.0975 3.60641 23.1091L3.69127 23.1124L6.03786 23.1119V20.0889C6.03786 19.6849 6.12143 19.3784 6.28857 19.1695L6.34064 19.1097C6.52386 18.92 6.79611 18.8167 7.15739 18.7997L7.26829 18.7972H11.9422C12.3655 18.7972 12.6763 18.9014 12.8746 19.1097C13.055 19.2993 13.1533 19.5862 13.1697 19.9703L13.1721 20.0884L13.1716 23.1119H15.5293C15.7276 23.1119 15.8745 23.0642 15.97 22.9687C16.052 22.8865 16.0989 22.7643 16.1108 22.6023L16.1137 22.5179V5.15501C16.1137 4.94994 16.0658 4.79951 15.97 4.70373C15.8745 4.60826 15.7281 4.56053 15.5298 4.56053ZM11.5015 20.14H7.70897C7.51032 20.14 7.40184 20.2303 7.38352 20.411L7.38111 20.4679L7.38063 23.1119H11.8289V20.4679C11.8289 20.2692 11.7387 20.1607 11.5584 20.1424L11.5015 20.14ZM21.6588 19.1251C21.8716 19.1251 21.9868 19.2227 22.0045 19.4178L22.0069 19.4737V21.0725C22.0069 21.2856 21.9094 21.401 21.7143 21.4187L21.6588 21.4211H20.0084C19.8021 21.4211 19.6901 21.3235 19.6724 21.1284L19.6704 21.0725V19.4737C19.6704 19.2606 19.7653 19.1452 19.9549 19.1275L20.0084 19.1251H21.6588ZM21.6588 15.2101C21.8716 15.2101 21.9868 15.3077 22.0045 15.5028L22.0069 15.5582V17.157C22.0069 17.3701 21.9094 17.4855 21.7143 17.5032L21.6588 17.5056H20.0084C19.8021 17.5056 19.6901 17.408 19.6724 17.2129L19.6704 17.157V15.5582C19.6704 15.3451 19.7653 15.2297 19.9549 15.212L20.0084 15.2096L21.6588 15.2101ZM8.20075 14.3794C8.45982 14.3794 8.59916 14.4988 8.61877 14.7376L8.62118 14.7998V16.7371C8.62118 16.9955 8.50177 17.1347 8.26295 17.1546L8.20075 17.157H6.20227C5.95638 17.157 5.82395 17.0377 5.80498 16.7992L5.80257 16.7366V14.7998C5.80257 14.5414 5.91604 14.402 6.14297 14.3818L6.20227 14.3794H8.20075ZM12.9981 14.3794C13.2565 14.3794 13.3957 14.4988 13.4156 14.7376L13.418 14.7998V16.7371C13.418 16.9955 13.2986 17.1347 13.0598 17.1546L12.9976 17.157H11.0092C10.7569 17.157 10.6211 17.0377 10.6018 16.7992L10.5994 16.7366V14.7998C10.5994 14.5414 10.7158 14.402 10.9485 14.3818L11.0092 14.3794H12.9981ZM21.6588 11.2941C21.8716 11.2941 21.9868 11.3919 22.0045 11.5873L22.0069 11.6427V13.242C22.0069 13.4548 21.9094 13.57 21.7143 13.5877L21.6588 13.5901H20.0084C19.8021 13.5901 19.6901 13.4925 19.6724 13.2974L19.6704 13.242V11.6427C19.6704 11.4303 19.7653 11.3149 19.9549 11.2965L20.0084 11.2941H21.6588ZM8.20075 10.3202C8.45982 10.3202 8.59916 10.4398 8.61877 10.6789L8.62118 10.7406V12.6779C8.62118 12.937 8.50177 13.0763 8.26295 13.0959L8.20075 13.0983H6.20227C5.95638 13.0983 5.82395 12.9789 5.80498 12.7401L5.80257 12.6779V10.7406C5.80257 10.4822 5.91604 10.343 6.14297 10.3231L6.20227 10.3207L8.20075 10.3202ZM12.9981 10.3202C13.2565 10.3202 13.3957 10.4398 13.4156 10.6789L13.418 10.7406V12.6779C13.418 12.937 13.2986 13.0763 13.0598 13.0959L12.9976 13.0983H11.0092C10.7569 13.0983 10.6211 12.9789 10.6018 12.7401L10.5994 12.6779V10.7406C10.5994 10.4822 10.7158 10.343 10.9485 10.3231L11.0092 10.3207L12.9981 10.3202ZM8.20075 6.26201C8.45982 6.26201 8.59916 6.38126 8.61877 6.61976L8.62118 6.68244V8.61921C8.62118 8.87764 8.50177 9.01682 8.26295 9.03675L8.20075 9.03964H6.20227C5.95638 9.03964 5.82395 8.92023 5.80498 8.68141L5.80257 8.61921V6.68196C5.80257 6.42353 5.91604 6.28435 6.14297 6.26442L6.20227 6.26201H8.20075ZM12.9981 6.26201C13.2565 6.26201 13.3957 6.38126 13.4156 6.61976L13.418 6.68244V8.61921C13.418 8.87764 13.2986 9.01682 13.0598 9.03675L12.9976 9.03964H11.0092C10.7569 9.03964 10.6211 8.92023 10.6018 8.68141L10.5994 8.61921V6.68196C10.5994 6.42353 10.7158 6.28435 10.9485 6.26442L11.0092 6.26201H12.9981Z" fill="#4B49AC"/>
</svg>
