<svg width="21" height="21" viewBox="0 0 21 21" fill="none" xmlns="http://www.w3.org/2000/svg">
<path d="M14 1.75V3.5M9.625 1.75V3.5M5.25 1.75V3.5M17.0625 8.75C17.0625 5.8625 17.0625 4.41875 16.1656 3.52187C15.2688 2.625 13.825 2.625 10.9375 2.625H8.3125C5.425 2.625 3.98125 2.625 3.08438 3.52187C2.1875 4.41875 2.1875 5.8625 2.1875 8.75V13.125C2.1875 16.0125 2.1875 17.4562 3.08438 18.3531C3.98125 19.25 5.425 19.25 8.3125 19.25H10.9375M15.3125 12.25V19.25M18.8125 15.75H11.8125M6.125 13.125H9.625M6.125 8.75H13.125" stroke="#0D9420" stroke-width="1.5" stroke-linecap="round" stroke-linejoin="round"/>
</svg>
